<svg version="1.1" id="Layer_1" xmlns="http://www.w3.org/2000/svg" xmlns:xlink="http://www.w3.org/1999/xlink" x="0px" y="0px"
	 width="100%" viewBox="0 0 512 512" enable-background="new 0 0 512 512" xml:space="preserve">
<path fill="#000000" opacity="1.000000" stroke="none" 
	d="
M513.000000,180.000000 
	C513.000000,291.306274 513.000000,402.112549 513.000000,512.959412 
	C342.402039,512.959412 171.804092,512.959412 1.103063,512.959412 
	C1.103063,342.443756 1.103063,171.887421 1.103063,1.165548 
	C171.666534,1.165548 342.333252,1.165548 513.000000,1.165548 
	C513.000000,60.529209 513.000000,120.014603 513.000000,180.000000 
M25.000076,237.500000 
	C25.000078,274.828156 24.998173,312.156281 25.001438,349.484436 
	C25.002243,358.694275 27.293922,360.998199 36.460537,360.998535 
	C105.951172,361.001160 175.441803,360.999969 244.932434,360.999969 
	C246.581421,360.999969 248.230408,360.999969 249.596329,360.999969 
	C259.884277,306.434235 289.702789,268.082214 343.597900,253.956802 
	C405.554596,237.718567 453.562988,261.340210 488.695923,313.266174 
	C488.695923,238.645035 488.695923,163.924698 488.695923,89.293205 
	C334.003387,89.293205 179.615051,89.293205 25.000076,89.293205 
	C25.000076,138.557327 25.000076,187.528671 25.000076,237.500000 
M88.500000,25.000851 
	C70.504250,25.001110 52.508404,24.968771 34.512791,25.018839 
	C27.979851,25.037014 25.093817,27.965183 25.013880,34.479599 
	C24.952549,39.477676 25.000982,44.477104 25.000891,49.475929 
	C25.000748,57.237949 25.000851,64.999969 25.000851,72.668442 
	C180.020355,72.668442 334.387329,72.668442 488.999237,72.668442 
	C488.999237,60.527325 489.001709,48.715336 488.998413,36.903343 
	C488.995667,27.111509 486.852905,25.001448 476.909058,25.001387 
	C347.772705,25.000584 218.636353,25.000853 88.500000,25.000851 
M389.893890,378.543671 
	C413.692505,402.334290 437.491119,426.124878 461.294373,449.920166 
	C486.271881,423.080933 498.091980,377.559204 480.826141,334.997314 
	C464.836548,295.581573 423.138123,265.381439 384.998840,265.879730 
	C384.998840,267.670868 384.998871,269.471375 384.998871,271.271851 
	C384.998871,303.263763 385.085724,335.256165 384.899658,367.246979 
	C384.873505,371.739929 385.556610,375.395844 389.893890,378.543671 
M312.870361,285.332520 
	C255.613556,325.930359 250.929230,403.401855 292.496399,449.898834 
	C292.984650,449.501404 293.517944,449.139832 293.965607,448.692535 
	C318.232025,424.446808 342.523956,400.226288 366.667175,375.858459 
	C368.066223,374.446320 368.897308,371.834503 368.905731,369.776520 
	C369.041992,336.472198 369.005676,303.167145 368.989807,269.862274 
	C368.989136,268.459991 368.808044,267.057770 368.700897,265.509521 
	C348.234375,267.051971 330.014557,273.604004 312.870361,285.332520 
M385.142334,488.756226 
	C409.597351,486.645264 431.218964,477.790039 449.039734,462.528564 
	C424.644653,438.124603 400.349335,413.820465 376.263885,389.726257 
	C352.639557,413.344879 328.488434,437.490204 304.125641,461.847107 
	C327.215027,481.268524 353.906128,490.327850 385.142334,488.756226 
z"/>
<path fill="#E6E9ED" opacity="1.000000" stroke="none" 
	d="
M25.000076,237.000000 
	C25.000076,187.528671 25.000076,138.557327 25.000076,89.293205 
	C179.615051,89.293205 334.003387,89.293205 488.695923,89.293205 
	C488.695923,163.924698 488.695923,238.645035 488.695923,313.266174 
	C453.562988,261.340210 405.554596,237.718567 343.597900,253.956802 
	C289.702789,268.082214 259.884277,306.434235 249.596329,360.999969 
	C248.230408,360.999969 246.581421,360.999969 244.932434,360.999969 
	C175.441803,360.999969 105.951172,361.001160 36.460537,360.998535 
	C27.293922,360.998199 25.002243,358.694275 25.001438,349.484436 
	C24.998173,312.156281 25.000078,274.828156 25.000076,237.000000 
M163.498962,217.000534 
	C167.331390,217.000504 171.163849,217.008926 174.996262,216.998932 
	C190.945633,216.957352 200.965622,207.056259 200.992233,191.225708 
	C201.026138,171.063583 201.027191,150.901291 200.991867,130.739166 
	C200.964111,114.901054 190.959320,105.013092 174.972900,105.005157 
	C138.980896,104.987305 102.988884,104.986649 66.996887,105.005424 
	C50.847622,105.013855 41.016296,114.960434 41.003212,131.263733 
	C40.987568,150.759384 40.996651,170.255081 41.000309,189.750748 
	C41.003628,207.439255 50.476341,216.996002 68.020348,216.999008 
	C99.513351,217.004395 131.006348,217.000534 163.498962,217.000534 
M150.500000,232.999466 
	C122.339630,232.999588 94.179184,232.961075 66.018921,233.015701 
	C51.369633,233.044128 41.073269,243.219421 41.019577,257.742310 
	C40.942574,278.570709 40.945171,299.399811 41.018845,320.228241 
	C41.069439,334.530243 51.305775,344.940582 65.499039,344.971863 
	C102.490601,345.053406 139.482574,345.051056 176.474152,344.972931 
	C190.476624,344.943329 200.883240,334.651398 200.963867,320.746948 
	C201.086594,299.585724 201.086197,278.422729 200.964127,257.261505 
	C200.883759,243.330368 190.502441,233.148743 176.494278,233.015106 
	C168.163559,232.935623 159.831467,232.999847 150.500000,232.999466 
M269.500000,152.999359 
	C337.249023,152.999359 404.998016,152.999359 472.710327,152.999359 
	C472.710327,147.367569 472.710327,142.298309 472.710327,137.279388 
	C392.698578,137.279388 312.976166,137.279388 233.289642,137.279388 
	C233.289642,142.632370 233.289642,147.701645 233.289642,152.999359 
	C245.218292,152.999359 256.859161,152.999359 269.500000,152.999359 
M392.500000,105.000656 
	C350.080505,105.000656 307.661041,105.000656 265.294678,105.000656 
	C265.294678,110.644104 265.294678,115.713303 265.294678,120.715424 
	C334.645020,120.715424 403.700897,120.715424 472.705353,120.715424 
	C472.705353,115.357460 472.705353,110.288177 472.705353,105.000656 
	C446.107971,105.000656 419.803986,105.000656 392.500000,105.000656 
M438.500000,169.000641 
	C391.416534,169.000641 344.333099,169.000641 297.290527,169.000641 
	C297.290527,174.634735 297.290527,179.703720 297.290527,184.719315 
	C355.970276,184.719315 414.359680,184.719315 472.709534,184.719315 
	C472.709534,179.365387 472.709534,174.296387 472.709534,169.000641 
	C461.447296,169.000641 450.473663,169.000641 438.500000,169.000641 
M248.503418,216.999359 
	C291.252380,216.999359 334.001343,216.999359 376.709961,216.999359 
	C376.709961,211.365784 376.709961,206.297028 376.709961,201.280792 
	C328.696838,201.280792 280.973663,201.280792 233.290237,201.280792 
	C233.290237,206.636002 233.290237,211.705109 233.290237,216.999359 
	C238.220184,216.999359 242.862534,216.999359 248.503418,216.999359 
M252.500427,169.000641 
	C246.073318,169.000641 239.646194,169.000641 233.296478,169.000641 
	C233.296478,174.651505 233.296478,179.718277 233.296478,184.709702 
	C249.319901,184.709702 265.045837,184.709702 280.703674,184.709702 
	C280.703674,179.347183 280.703674,174.280716 280.703674,169.000641 
	C271.439941,169.000641 262.470062,169.000641 252.500427,169.000641 
M402.458191,216.999359 
	C404.557068,216.999359 406.655945,216.999359 408.719055,216.999359 
	C408.719055,211.372284 408.719055,206.307129 408.719055,201.283005 
	C403.368134,201.283005 398.302979,201.283005 393.285095,201.283005 
	C393.285095,206.634583 393.285095,211.699142 393.285095,216.999359 
	C396.205872,216.999359 398.844452,216.999359 402.458191,216.999359 
M440.999359,212.390152 
	C440.999359,208.638718 440.999359,204.887268 440.999359,201.333527 
	C435.267090,201.333527 430.199097,201.333527 425.336731,201.333527 
	C425.336731,206.739914 425.336731,211.806519 425.336731,216.999176 
	C429.656036,216.999176 433.654999,216.790817 437.620300,217.066467 
	C440.675873,217.278900 441.394653,215.975632 440.999359,212.390152 
M470.320129,201.001129 
	C465.908112,201.001129 461.496094,201.001129 457.357605,201.001129 
	C457.357605,206.783737 457.357605,211.854538 457.357605,216.638947 
	C462.790710,216.638947 467.862823,216.638947 472.998932,216.638947 
	C472.998932,212.121368 473.103119,207.959396 472.920654,203.810028 
	C472.878601,202.853210 471.854187,201.939606 470.320129,201.001129 
M248.999313,108.646469 
	C248.834503,107.022743 249.825302,104.831810 246.621185,104.958603 
	C242.188385,105.134018 237.743439,105.002640 233.250122,105.002640 
	C233.250122,110.561913 233.250122,115.627159 233.250122,120.746719 
	C238.568726,120.746719 243.633804,120.746719 248.999344,120.746719 
	C248.999344,116.868538 248.999344,113.239182 248.999313,108.646469 
z"/>
<path fill="#5CD6B3" opacity="1.000000" stroke="none" 
	d="
M89.000000,25.000851 
	C218.636353,25.000853 347.772705,25.000584 476.909058,25.001387 
	C486.852905,25.001448 488.995667,27.111509 488.998413,36.903343 
	C489.001709,48.715336 488.999237,60.527325 488.999237,72.668442 
	C334.387329,72.668442 180.020355,72.668442 25.000851,72.668442 
	C25.000851,64.999969 25.000748,57.237949 25.000891,49.475929 
	C25.000982,44.477104 24.952549,39.477676 25.013880,34.479599 
	C25.093817,27.965183 27.979851,25.037014 34.512791,25.018839 
	C52.508404,24.968771 70.504250,25.001110 89.000000,25.000851 
M120.999908,49.478645 
	C120.999908,46.732166 120.999908,43.985687 120.999908,41.323303 
	C115.318787,41.323303 110.284760,41.323303 105.325279,41.323303 
	C105.325279,46.685207 105.325279,51.719337 105.325279,56.672504 
	C110.689064,56.672504 115.723099,56.672504 120.999908,56.672504 
	C120.999908,54.380989 120.999908,52.415123 120.999908,49.478645 
M73.000130,52.378914 
	C73.077484,53.812447 73.154839,55.245979 73.234184,56.716484 
	C78.601608,56.716484 83.635132,56.716484 88.714340,56.716484 
	C88.714340,51.394188 88.714340,46.360554 88.714340,41.287788 
	C83.391396,41.287788 78.357887,41.287788 73.000092,41.287788 
	C73.000092,44.851112 73.000092,48.130653 73.000130,52.378914 
M43.703461,41.002106 
	C42.804474,41.795742 41.178467,42.546211 41.128353,43.390251 
	C40.867069,47.790951 41.006504,52.215443 41.006504,56.737347 
	C46.556614,56.737347 51.590305,56.737347 56.734741,56.737347 
	C56.734741,51.437492 56.734741,46.404007 56.734741,41.000351 
	C52.541599,41.000351 48.604343,41.000351 43.703461,41.002106 
z"/>
<path fill="#FE816E" opacity="1.000000" stroke="none" 
	d="
M389.633179,378.289917 
	C385.556610,375.395844 384.873505,371.739929 384.899658,367.246979 
	C385.085724,335.256165 384.998871,303.263763 384.998871,271.271851 
	C384.998871,269.471375 384.998840,267.670868 384.998840,265.879730 
	C423.138123,265.381439 464.836548,295.581573 480.826141,334.997314 
	C498.091980,377.559204 486.271881,423.080933 461.294373,449.920166 
	C437.491119,426.124878 413.692505,402.334290 389.633179,378.289917 
M462.318207,333.895355 
	C457.748474,336.047180 453.178741,338.199036 448.467957,340.417328 
	C450.363373,345.199341 452.049347,349.452911 453.884674,354.083313 
	C458.939728,352.552277 463.878296,351.056549 469.399933,349.384216 
	C467.085419,344.004669 465.009430,339.179596 462.318207,333.895355 
M459.837830,415.727631 
	C461.169861,416.236084 462.501892,416.744537 464.361725,417.454468 
	C466.317932,411.896118 468.142090,406.713013 470.070007,401.235046 
	C464.390320,399.803009 459.480560,398.565063 454.587311,397.331329 
	C452.861938,402.211395 451.342468,406.509094 449.768829,410.959991 
	C453.172546,412.544861 456.172821,413.941864 459.837830,415.727631 
M472.920013,381.193176 
	C472.920013,376.493774 472.920013,371.794373 472.920013,366.634583 
	C466.837280,367.296631 461.959778,367.827484 457.228180,368.342468 
	C457.228180,373.476013 457.228180,378.180573 457.228180,382.808594 
	C461.468933,383.177032 465.269043,383.673126 469.077057,383.744049 
	C470.335632,383.767456 471.614655,382.694397 472.920013,381.193176 
z"/>
<path fill="#FAD66F" opacity="1.000000" stroke="none" 
	d="
M313.174347,285.140015 
	C330.014557,273.604004 348.234375,267.051971 368.700897,265.509521 
	C368.808044,267.057770 368.989136,268.459991 368.989807,269.862274 
	C369.005676,303.167145 369.041992,336.472198 368.905731,369.776520 
	C368.897308,371.834503 368.066223,374.446320 366.667175,375.858459 
	C342.523956,400.226288 318.232025,424.446808 293.965607,448.692535 
	C293.517944,449.139832 292.984650,449.501404 292.496399,449.898834 
	C250.929230,403.401855 255.613556,325.930359 313.174347,285.140015 
M348.757446,302.110931 
	C350.883392,301.374664 353.009369,300.638397 355.212494,299.875397 
	C353.607239,294.445068 352.179230,289.614227 350.758270,284.807312 
	C306.584778,296.985016 279.901947,339.545319 281.380676,376.773743 
	C286.441895,376.773743 291.514069,376.773743 296.662354,376.773743 
	C299.013245,341.661499 315.516968,316.478424 348.757446,302.110931 
M286.377991,408.843903 
	C287.307159,409.639465 288.510864,411.290070 289.121552,411.093964 
	C293.591888,409.658539 297.943329,407.852814 302.240479,406.199249 
	C300.756104,400.998199 299.495544,396.581421 298.098297,391.685699 
	C293.040070,392.588409 288.076050,393.474335 282.442352,394.479767 
	C283.733917,399.289825 284.921295,403.711914 286.377991,408.843903 
z"/>
<path fill="#4FC0E8" opacity="1.000000" stroke="none" 
	d="
M384.674683,488.788086 
	C353.906128,490.327850 327.215027,481.268524 304.125641,461.847107 
	C328.488434,437.490204 352.639557,413.344879 376.263885,389.726257 
	C400.349335,413.820465 424.644653,438.124603 449.039734,462.528564 
	C431.218964,477.790039 409.597351,486.645264 384.674683,488.788086 
z"/>
<path fill="#010101" opacity="1.000000" stroke="none" 
	d="
M162.999161,217.000534 
	C131.006348,217.000534 99.513351,217.004395 68.020348,216.999008 
	C50.476341,216.996002 41.003628,207.439255 41.000309,189.750748 
	C40.996651,170.255081 40.987568,150.759384 41.003212,131.263733 
	C41.016296,114.960434 50.847622,105.013855 66.996887,105.005424 
	C102.988884,104.986649 138.980896,104.987305 174.972900,105.005157 
	C190.959320,105.013092 200.964111,114.901054 200.991867,130.739166 
	C201.027191,150.901291 201.026138,171.063583 200.992233,191.225708 
	C200.965622,207.056259 190.945633,216.957352 174.996262,216.998932 
	C171.163849,217.008926 167.331390,217.000504 162.999161,217.000534 
M183.871078,124.987389 
	C181.015717,123.658279 178.168594,121.193291 175.303726,121.172478 
	C139.164261,120.909981 103.022232,120.986565 66.880875,121.011360 
	C59.777241,121.016235 57.018677,123.853088 57.008999,131.091232 
	C56.982502,150.910645 56.987274,170.730164 57.006096,190.549606 
	C57.013508,198.355072 59.668217,200.991760 67.525154,200.994568 
	C103.166878,201.007339 138.808594,201.007126 174.450317,200.994736 
	C182.310242,200.992004 184.985565,198.348572 184.993454,190.567596 
	C185.013535,170.748154 185.020813,150.928604 184.964920,131.109299 
	C184.959885,129.322678 184.460709,127.537415 183.871078,124.987389 
z"/>
<path fill="#010101" opacity="1.000000" stroke="none" 
	d="
M151.000000,232.999466 
	C159.831467,232.999847 168.163559,232.935623 176.494278,233.015106 
	C190.502441,233.148743 200.883759,243.330368 200.964127,257.261505 
	C201.086197,278.422729 201.086594,299.585724 200.963867,320.746948 
	C200.883240,334.651398 190.476624,344.943329 176.474152,344.972931 
	C139.482574,345.051056 102.490601,345.053406 65.499039,344.971863 
	C51.305775,344.940582 41.069439,334.530243 41.018845,320.228241 
	C40.945171,299.399811 40.942574,278.570709 41.019577,257.742310 
	C41.073269,243.219421 51.369633,233.044128 66.018921,233.015701 
	C94.179184,232.961075 122.339630,232.999588 151.000000,232.999466 
M101.500000,249.000793 
	C90.014069,249.000854 78.528053,248.975174 67.042229,249.010376 
	C59.847652,249.032410 57.024101,251.806717 57.012424,258.931061 
	C56.979698,278.906555 56.983131,298.882172 57.010258,318.857697 
	C57.020329,326.275696 59.788383,328.988312 67.333931,328.991760 
	C103.123459,329.008209 138.912994,329.008636 174.702530,328.991455 
	C182.229004,328.987823 184.979553,326.269409 184.989807,318.815186 
	C185.017014,299.006134 185.013611,279.196960 184.991806,259.387909 
	C184.983276,251.640030 182.294952,249.010910 174.412003,249.006119 
	C150.441330,248.991592 126.470665,249.000809 101.500000,249.000793 
z"/>
<path fill="#000000" opacity="1.000000" stroke="none" 
	d="
M269.000000,152.999359 
	C256.859161,152.999359 245.218292,152.999359 233.289642,152.999359 
	C233.289642,147.701645 233.289642,142.632370 233.289642,137.279388 
	C312.976166,137.279388 392.698578,137.279388 472.710327,137.279388 
	C472.710327,142.298309 472.710327,147.367569 472.710327,152.999359 
	C404.998016,152.999359 337.249023,152.999359 269.000000,152.999359 
z"/>
<path fill="#000000" opacity="1.000000" stroke="none" 
	d="
M393.000000,105.000656 
	C419.803986,105.000656 446.107971,105.000656 472.705353,105.000656 
	C472.705353,110.288177 472.705353,115.357460 472.705353,120.715424 
	C403.700897,120.715424 334.645020,120.715424 265.294678,120.715424 
	C265.294678,115.713303 265.294678,110.644104 265.294678,105.000656 
	C307.661041,105.000656 350.080505,105.000656 393.000000,105.000656 
z"/>
<path fill="#000000" opacity="1.000000" stroke="none" 
	d="
M439.000000,169.000641 
	C450.473663,169.000641 461.447296,169.000641 472.709534,169.000641 
	C472.709534,174.296387 472.709534,179.365387 472.709534,184.719315 
	C414.359680,184.719315 355.970276,184.719315 297.290527,184.719315 
	C297.290527,179.703720 297.290527,174.634735 297.290527,169.000641 
	C344.333099,169.000641 391.416534,169.000641 439.000000,169.000641 
z"/>
<path fill="#000000" opacity="1.000000" stroke="none" 
	d="
M248.004150,216.999359 
	C242.862534,216.999359 238.220184,216.999359 233.290237,216.999359 
	C233.290237,211.705109 233.290237,206.636002 233.290237,201.280792 
	C280.973663,201.280792 328.696838,201.280792 376.709961,201.280792 
	C376.709961,206.297028 376.709961,211.365784 376.709961,216.999359 
	C334.001343,216.999359 291.252380,216.999359 248.004150,216.999359 
z"/>
<path fill="#000000" opacity="1.000000" stroke="none" 
	d="
M253.000305,169.000641 
	C262.470062,169.000641 271.439941,169.000641 280.703674,169.000641 
	C280.703674,174.280716 280.703674,179.347183 280.703674,184.709702 
	C265.045837,184.709702 249.319901,184.709702 233.296478,184.709702 
	C233.296478,179.718277 233.296478,174.651505 233.296478,169.000641 
	C239.646194,169.000641 246.073318,169.000641 253.000305,169.000641 
z"/>
<path fill="#000000" opacity="1.000000" stroke="none" 
	d="
M401.970612,216.999359 
	C398.844452,216.999359 396.205872,216.999359 393.285095,216.999359 
	C393.285095,211.699142 393.285095,206.634583 393.285095,201.283005 
	C398.302979,201.283005 403.368134,201.283005 408.719055,201.283005 
	C408.719055,206.307129 408.719055,211.372284 408.719055,216.999359 
	C406.655945,216.999359 404.557068,216.999359 401.970612,216.999359 
z"/>
<path fill="#000000" opacity="1.000000" stroke="none" 
	d="
M440.999329,212.871796 
	C441.394653,215.975632 440.675873,217.278900 437.620300,217.066467 
	C433.654999,216.790817 429.656036,216.999176 425.336731,216.999176 
	C425.336731,211.806519 425.336731,206.739914 425.336731,201.333527 
	C430.199097,201.333527 435.267090,201.333527 440.999359,201.333527 
	C440.999359,204.887268 440.999359,208.638718 440.999329,212.871796 
z"/>
<path fill="#000000" opacity="1.000000" stroke="none" 
	d="
M470.800964,201.003632 
	C471.854187,201.939606 472.878601,202.853210 472.920654,203.810028 
	C473.103119,207.959396 472.998932,212.121368 472.998932,216.638947 
	C467.862823,216.638947 462.790710,216.638947 457.357605,216.638947 
	C457.357605,211.854538 457.357605,206.783737 457.357605,201.001129 
	C461.496094,201.001129 465.908112,201.001129 470.800964,201.003632 
z"/>
<path fill="#000000" opacity="1.000000" stroke="none" 
	d="
M248.999329,109.128143 
	C248.999344,113.239182 248.999344,116.868538 248.999344,120.746719 
	C243.633804,120.746719 238.568726,120.746719 233.250122,120.746719 
	C233.250122,115.627159 233.250122,110.561913 233.250122,105.002640 
	C237.743439,105.002640 242.188385,105.134018 246.621185,104.958603 
	C249.825302,104.831810 248.834503,107.022743 248.999329,109.128143 
z"/>
<path fill="#000000" opacity="1.000000" stroke="none" 
	d="
M120.999908,49.963951 
	C120.999908,52.415123 120.999908,54.380989 120.999908,56.672504 
	C115.723099,56.672504 110.689064,56.672504 105.325279,56.672504 
	C105.325279,51.719337 105.325279,46.685207 105.325279,41.323303 
	C110.284760,41.323303 115.318787,41.323303 120.999908,41.323303 
	C120.999908,43.985687 120.999908,46.732166 120.999908,49.963951 
z"/>
<path fill="#000000" opacity="1.000000" stroke="none" 
	d="
M73.000107,51.894554 
	C73.000092,48.130653 73.000092,44.851112 73.000092,41.287788 
	C78.357887,41.287788 83.391396,41.287788 88.714340,41.287788 
	C88.714340,46.360554 88.714340,51.394188 88.714340,56.716484 
	C83.635132,56.716484 78.601608,56.716484 73.234184,56.716484 
	C73.154839,55.245979 73.077484,53.812447 73.000107,51.894554 
z"/>
<path fill="#000000" opacity="1.000000" stroke="none" 
	d="
M44.185276,41.001228 
	C48.604343,41.000351 52.541599,41.000351 56.734741,41.000351 
	C56.734741,46.404007 56.734741,51.437492 56.734741,56.737347 
	C51.590305,56.737347 46.556614,56.737347 41.006504,56.737347 
	C41.006504,52.215443 40.867069,47.790951 41.128353,43.390251 
	C41.178467,42.546211 42.804474,41.795742 44.185276,41.001228 
z"/>
<path fill="#090404" opacity="1.000000" stroke="none" 
	d="
M462.625854,334.124939 
	C465.009430,339.179596 467.085419,344.004669 469.399933,349.384216 
	C463.878296,351.056549 458.939728,352.552277 453.884674,354.083313 
	C452.049347,349.452911 450.363373,345.199341 448.467957,340.417328 
	C453.178741,338.199036 457.748474,336.047180 462.625854,334.124939 
z"/>
<path fill="#060303" opacity="1.000000" stroke="none" 
	d="
M459.505432,415.533264 
	C456.172821,413.941864 453.172546,412.544861 449.768829,410.959991 
	C451.342468,406.509094 452.861938,402.211395 454.587311,397.331329 
	C459.480560,398.565063 464.390320,399.803009 470.070007,401.235046 
	C468.142090,406.713013 466.317932,411.896118 464.361725,417.454468 
	C462.501892,416.744537 461.169861,416.236084 459.505432,415.533264 
z"/>
<path fill="#060303" opacity="1.000000" stroke="none" 
	d="
M472.902161,381.657928 
	C471.614655,382.694397 470.335632,383.767456 469.077057,383.744049 
	C465.269043,383.673126 461.468933,383.177032 457.228180,382.808594 
	C457.228180,378.180573 457.228180,373.476013 457.228180,368.342468 
	C461.959778,367.827484 466.837280,367.296631 472.920013,366.634583 
	C472.920013,371.794373 472.920013,376.493774 472.902161,381.657928 
z"/>
<path fill="#040402" opacity="1.000000" stroke="none" 
	d="
M348.397156,302.255432 
	C315.516968,316.478424 299.013245,341.661499 296.662354,376.773743 
	C291.514069,376.773743 286.441895,376.773743 281.380676,376.773743 
	C279.901947,339.545319 306.584778,296.985016 350.758270,284.807312 
	C352.179230,289.614227 353.607239,294.445068 355.212494,299.875397 
	C353.009369,300.638397 350.883392,301.374664 348.397156,302.255432 
z"/>
<path fill="#080704" opacity="1.000000" stroke="none" 
	d="
M286.243347,408.488953 
	C284.921295,403.711914 283.733917,399.289825 282.442352,394.479767 
	C288.076050,393.474335 293.040070,392.588409 298.098297,391.685699 
	C299.495544,396.581421 300.756104,400.998199 302.240479,406.199249 
	C297.943329,407.852814 293.591888,409.658539 289.121552,411.093964 
	C288.510864,411.290070 287.307159,409.639465 286.243347,408.488953 
z"/>
<path fill="#FBD670" opacity="1.000000" stroke="none" 
	d="
M184.031036,125.369453 
	C184.460709,127.537415 184.959885,129.322678 184.964920,131.109299 
	C185.020813,150.928604 185.013535,170.748154 184.993454,190.567596 
	C184.985565,198.348572 182.310242,200.992004 174.450317,200.994736 
	C138.808594,201.007126 103.166878,201.007339 67.525154,200.994568 
	C59.668217,200.991760 57.013508,198.355072 57.006096,190.549606 
	C56.987274,170.730164 56.982502,150.910645 57.008999,131.091232 
	C57.018677,123.853088 59.777241,121.016235 66.880875,121.011360 
	C103.022232,120.986565 139.164261,120.909981 175.303726,121.172478 
	C178.168594,121.193291 181.015717,123.658279 184.031036,125.369453 
M137.080124,157.583450 
	C134.733978,160.547775 132.387817,163.512115 129.538773,167.111832 
	C120.426453,157.744675 112.790337,149.895004 105.652245,142.557281 
	C93.073105,155.102936 80.640404,167.502533 68.882828,179.228821 
	C72.096001,182.534164 75.634476,186.174164 79.710663,190.367294 
	C87.984497,182.029404 96.503189,173.444748 105.822281,164.053513 
	C113.546173,172.177200 121.178551,180.204636 128.364990,187.763046 
	C143.803940,172.291122 158.826096,157.236862 173.516190,142.515381 
	C170.338287,139.155197 166.841461,135.457794 163.090378,131.491547 
	C154.486526,140.122849 146.033661,148.602661 137.080124,157.583450 
z"/>
<path fill="#FF826E" opacity="1.000000" stroke="none" 
	d="
M102.000000,249.000793 
	C126.470665,249.000809 150.441330,248.991592 174.412003,249.006119 
	C182.294952,249.010910 184.983276,251.640030 184.991806,259.387909 
	C185.013611,279.196960 185.017014,299.006134 184.989807,318.815186 
	C184.979553,326.269409 182.229004,328.987823 174.702530,328.991455 
	C138.912994,329.008636 103.123459,329.008209 67.333931,328.991760 
	C59.788383,328.988312 57.020329,326.275696 57.010258,318.857697 
	C56.983131,298.882172 56.979698,278.906555 57.012424,258.931061 
	C57.024101,251.806717 59.847652,249.032410 67.042229,249.010376 
	C78.528053,248.975174 90.014069,249.000854 102.000000,249.000793 
M73.000641,301.481323 
	C73.000641,305.243561 73.000641,309.005798 73.000641,312.686279 
	C105.338455,312.686279 137.038177,312.686279 168.655502,312.686279 
	C168.655502,307.308594 168.655502,302.248993 168.655502,296.727173 
	C163.249496,296.727173 158.183670,296.727173 152.849884,296.727173 
	C152.849884,285.982788 152.849884,275.713043 152.849884,265.252502 
	C147.499161,265.252502 142.442917,265.252502 136.919373,265.252502 
	C136.919373,275.887756 136.919373,286.281372 136.919373,296.695770 
	C131.387192,296.695770 126.330704,296.695770 120.804604,296.695770 
	C120.804604,291.331635 120.804604,286.267181 120.804604,281.366455 
	C115.261642,281.366455 110.199646,281.366455 104.860321,281.366455 
	C104.860321,286.673553 104.860321,291.617859 104.860321,296.750885 
	C99.503326,296.750885 94.446678,296.750885 88.922539,296.750885 
	C88.922539,286.117889 88.922539,275.724457 88.922539,265.304504 
	C83.390976,265.304504 78.334991,265.304504 73.000641,265.304504 
	C73.000641,277.233551 73.000641,288.860809 73.000641,301.481323 
z"/>
<path fill="#060503" opacity="1.000000" stroke="none" 
	d="
M137.330475,157.332977 
	C146.033661,148.602661 154.486526,140.122849 163.090378,131.491547 
	C166.841461,135.457794 170.338287,139.155197 173.516190,142.515381 
	C158.826096,157.236862 143.803940,172.291122 128.364990,187.763046 
	C121.178551,180.204636 113.546173,172.177200 105.822281,164.053513 
	C96.503189,173.444748 87.984497,182.029404 79.710663,190.367294 
	C75.634476,186.174164 72.096001,182.534164 68.882828,179.228821 
	C80.640404,167.502533 93.073105,155.102936 105.652245,142.557281 
	C112.790337,149.895004 120.426453,157.744675 129.538773,167.111832 
	C132.387817,163.512115 134.733978,160.547775 137.330475,157.332977 
z"/>
<path fill="#000000" opacity="1.000000" stroke="none" 
	d="
M73.000641,300.984680 
	C73.000641,288.860809 73.000641,277.233551 73.000641,265.304504 
	C78.334991,265.304504 83.390976,265.304504 88.922539,265.304504 
	C88.922539,275.724457 88.922539,286.117889 88.922539,296.750885 
	C94.446678,296.750885 99.503326,296.750885 104.860321,296.750885 
	C104.860321,291.617859 104.860321,286.673553 104.860321,281.366455 
	C110.199646,281.366455 115.261642,281.366455 120.804604,281.366455 
	C120.804604,286.267181 120.804604,291.331635 120.804604,296.695770 
	C126.330704,296.695770 131.387192,296.695770 136.919373,296.695770 
	C136.919373,286.281372 136.919373,275.887756 136.919373,265.252502 
	C142.442917,265.252502 147.499161,265.252502 152.849884,265.252502 
	C152.849884,275.713043 152.849884,285.982788 152.849884,296.727173 
	C158.183670,296.727173 163.249496,296.727173 168.655502,296.727173 
	C168.655502,302.248993 168.655502,307.308594 168.655502,312.686279 
	C137.038177,312.686279 105.338455,312.686279 73.000641,312.686279 
	C73.000641,309.005798 73.000641,305.243561 73.000641,300.984680 
z"/>
</svg>